<svg xmlns="http://www.w3.org/2000/svg" viewBox="0 0 512 512" width="512" height="512">
	<style>
		tspan { white-space:pre }
		.shp0 { fill: #000000 } 
	</style>
	<path id="Layer" fill-rule="evenodd" class="shp0" d="M504 256C504 393 393 504 256 504C119 504 8 393 8 256C8 119 119 8 256 8C393 8 504 119 504 256ZM351.37 315.46C351.96 313.44 352.14 311.32 351.91 309.23C351.68 307.14 351.04 305.12 350.02 303.28C349.01 301.44 347.64 299.81 346 298.5L288 256L288 112C288 109.9 287.59 107.82 286.78 105.88C285.98 103.94 284.8 102.17 283.31 100.69C281.83 99.2 280.06 98.02 278.12 97.22C276.18 96.41 274.1 96 272 96L240 96C237.9 96 235.82 96.41 233.88 97.22C231.94 98.02 230.17 99.2 228.69 100.69C227.2 102.17 226.02 103.94 225.22 105.88C224.41 107.82 224 109.9 224 112L224 267.55C224 270.54 224.33 273.52 225 276.43C225.66 279.35 226.65 282.18 227.94 284.87C229.24 287.57 230.83 290.11 232.69 292.45C234.55 294.79 236.67 296.91 239 298.78L306 348.5C307.64 349.81 309.52 350.79 311.54 351.37C313.56 351.96 315.67 352.14 317.76 351.91C319.85 351.68 321.87 351.03 323.71 350.02C325.55 349.01 327.18 347.64 328.49 346L348.49 321C349.8 319.36 350.78 317.48 351.37 315.46Z" />
</svg>