<svg xmlns="http://www.w3.org/2000/svg" viewBox="0 0 256 264" width="256" height="264">
	<style>
		tspan { white-space:pre }
		.shp0 { fill: #000000 } 
	</style>
	<path id="Layer" fill-rule="evenodd" class="shp0" d="M256 132C256 202.64 198.71 259.88 128 259.88C57.29 259.88 0 202.64 0 132C0 61.36 57.29 4.13 128 4.13C198.71 4.13 256 61.36 256 132ZM82.58 99C82.58 124.06 102.92 144.38 128 144.38C153.08 144.38 173.42 124.06 173.42 99C173.42 73.94 153.08 53.63 128 53.63C102.92 53.63 82.58 73.94 82.58 99ZM203.61 195.83C193.91 177.58 174.92 165 152.77 165C151.54 165 150.3 165.21 149.11 165.57C142.45 167.73 135.38 169.13 128 169.13C120.62 169.13 113.6 167.73 106.89 165.57C105.7 165.21 104.46 165 103.23 165C81.08 165 62.09 177.58 52.39 195.83C70.55 217.28 97.7 231 128 231C158.3 231 185.45 217.28 203.61 195.83Z" />
</svg>