<svg xmlns="http://www.w3.org/2000/svg" viewBox="0 0 496 512" width="496" height="512">
	<style>
		tspan { white-space:pre }
		.shp0 { fill: #000000 } 
	</style>
	<path id="Layer" fill-rule="evenodd" class="shp0" d="M496 256C496 393 385 504 248 504C111 504 0 393 0 256C0 119 111 8 248 8C385 8 496 119 496 256ZM160 192C160 240.6 199.4 280 248 280C296.6 280 336 240.6 336 192C336 143.4 296.6 104 248 104C199.4 104 160 143.4 160 192ZM394.5 379.8C375.7 344.4 338.9 320 296 320C293.6 320 291.2 320.4 288.9 321.1C276 325.3 262.3 328 248 328C233.7 328 220.1 325.3 207.1 321.1C204.8 320.4 202.4 320 200 320C157.1 320 120.3 344.4 101.5 379.8C136.7 421.4 189.3 448 248 448C306.7 448 359.3 421.4 394.5 379.8Z" />
</svg>