<svg xmlns="http://www.w3.org/2000/svg" viewBox="0 0 512 512" width="512" height="512">
	<style>
		tspan { white-space:pre }
		.shp0 { fill: #000000 } 
	</style>
	<path id="Layer" fill-rule="evenodd" class="shp0" d="M512 144L512 432C512 458.5 490.5 480 464 480L48 480C21.5 480 0 458.5 0 432L0 144C0 117.5 21.5 96 48 96L136 96L148.3 63.1C155.3 44.4 173.2 32 193.2 32L318.7 32C338.7 32 356.6 44.4 363.6 63.1L376 96L464 96C490.5 96 512 117.5 512 144ZM376 288C376 221.8 322.2 168 256 168C189.8 168 136 221.8 136 288C136 354.2 189.8 408 256 408C322.2 408 376 354.2 376 288ZM344 288C344 336.5 304.5 376 256 376C207.5 376 168 336.5 168 288C168 239.5 207.5 200 256 200C304.5 200 344 239.5 344 288Z" />
</svg>