<svg xmlns="http://www.w3.org/2000/svg" viewBox="0 0 512 512" width="512" height="512">
	<style>
		tspan { white-space:pre }
		.shp0 { fill: #000000 } 
	</style>
	<path id="Layer" fill-rule="evenodd" class="shp0" d="M466.5 66.9C487.7 57.1 512 72.6 511.9 95.9L511.9 339C511.9 349.6 506.8 359.4 498.1 365.4C462.3 390 423.8 406.3 375.6 406.3C308.2 406.3 264 371.5 210.4 371.5C159.6 371.5 124.3 381.5 96 393.6L96 488C96 501.3 85.3 512 72 512L56 512C42.7 512 32 501.3 32 488L32 101.9C17.5 91.8 8 75 8 56C8 24.3 34.3 -1.3 66.3 0C94.8 1.2 118.1 24 119.9 52.4C120.4 60.8 119.1 68.7 116.3 76C137 68.4 159.3 64 184.3 64C251.7 64 296 98.8 349.5 98.8C390 98.8 432.2 82.8 466.5 66.9ZM464 120.5C442.7 129.4 417.4 138.2 390.4 143L390.4 214.9C364.4 219.1 340.5 217.5 316.8 212.2L316.8 143.8C290.4 139.2 266.9 129.9 243.2 122.5L243.2 189.9C218 182.9 196.6 180.5 169.6 184.2L169.6 112.6C146.1 114.8 129.2 122.4 96 134.6L96 205.1C125 194.4 147.2 187.3 169.6 184.2L169.6 254.2C202.4 251.2 223.5 253.6 243.2 258L243.2 326.5C269.5 331.1 292.9 340.4 316.8 347.8L316.8 280.4C342.5 287.5 363.4 289.7 390.4 286L390.4 357.6C415.5 355.2 438.9 346.6 464 330.5L464 260C441.8 274.2 415.2 282.6 390.4 286L390.4 214.9C417.7 210.5 440.4 200.8 464 191L464 120.5ZM169.6 254.2C143.5 256.6 122.2 262.3 96 271.6L96 342.1C119.6 333.7 143.8 328.2 169.6 325.5L169.6 254.2ZM243.2 258C269.3 263.9 292.5 273.6 316.8 280.3L316.8 212.1C290.8 206.3 267.4 196.6 243.2 189.9L243.2 258Z" />
</svg>