<svg xmlns="http://www.w3.org/2000/svg" viewBox="0 0 128 146" width="128" height="146">
	<style>
		tspan { white-space:pre }
		.shp0 { fill: #000000 } 
	</style>
	<path id="Layer" fill-rule="evenodd" class="shp0" d="M114.29 136.88L13.71 136.88C6.14 136.88 0 130.75 0 123.19L0 22.81C0 15.25 6.14 9.13 13.71 9.13L114.29 9.13C121.86 9.13 128 15.25 128 22.81L128 123.19C128 130.75 121.86 136.88 114.29 136.88ZM108.38 56.44C110.16 54.66 110.16 51.77 108.38 49.99L101.91 43.54C100.13 41.76 97.23 41.76 95.45 43.54L52.57 86.33L32.55 66.35C30.77 64.57 27.87 64.57 26.09 66.35L19.62 72.8C17.84 74.59 17.84 77.47 19.62 79.26L49.34 108.91C51.12 110.69 54.02 110.69 55.8 108.91L108.38 56.44Z" />
</svg>