<svg xmlns="http://www.w3.org/2000/svg" viewBox="0 0 128 146" width="128" height="146">
	<style>
		tspan { white-space:pre }
		.shp0 { fill: #000000 } 
	</style>
	<path id="Layer" fill-rule="evenodd" class="shp0" d="M128 22.81L128 123.19C128 130.74 121.86 136.88 114.29 136.88L13.71 136.88C6.14 136.88 0 130.74 0 123.19L0 22.81C0 15.26 6.14 9.13 13.71 9.13L114.29 9.13C121.86 9.13 128 15.26 128 22.81ZM114.29 121.48L114.29 24.52C114.29 23.58 113.51 22.81 112.57 22.81L15.43 22.81C14.49 22.81 13.71 23.58 13.71 24.52L13.71 121.48C13.71 122.42 14.49 123.19 15.43 123.19L112.57 123.19C113.51 123.19 114.29 122.42 114.29 121.48Z" />
</svg>