<svg xmlns="http://www.w3.org/2000/svg" viewBox="0 0 128 128" width="128" height="128">
	<style>
		tspan { white-space:pre }
		.shp0 { fill: #000000 } 
	</style>
	<path id="Layer" fill-rule="evenodd" class="shp0" d="M126 64C126 98.25 98.25 126 64 126C29.75 126 2 98.25 2 64C2 29.75 29.75 2 64 2C98.25 2 126 29.75 126 64ZM87.84 78.86C87.99 78.36 88.03 77.83 87.98 77.31C87.92 76.79 87.76 76.28 87.51 75.82C87.25 75.36 86.91 74.95 86.5 74.63L72 64L72 28C72 27.47 71.9 26.95 71.7 26.47C71.49 25.98 71.2 25.54 70.83 25.17C70.46 24.8 70.02 24.51 69.53 24.3C69.05 24.1 68.53 24 68 24L60 24C59.47 24 58.95 24.1 58.47 24.3C57.98 24.51 57.54 24.8 57.17 25.17C56.8 25.54 56.51 25.98 56.3 26.47C56.1 26.95 56 27.47 56 28L56 66.89C56 67.63 56.08 68.38 56.25 69.11C56.42 69.84 56.66 70.54 56.99 71.22C57.31 71.89 57.71 72.53 58.17 73.11C58.64 73.7 59.17 74.23 59.75 74.69L76.5 87.13C76.91 87.45 77.38 87.7 77.89 87.84C78.39 87.99 78.92 88.04 79.44 87.98C79.96 87.92 80.47 87.76 80.93 87.51C81.39 87.25 81.79 86.91 82.12 86.5L87.12 80.25C87.45 79.84 87.7 79.37 87.84 78.86Z" />
</svg>