<svg xmlns="http://www.w3.org/2000/svg" viewBox="0 0 128 102" width="128" height="102">
	<style>
		tspan { white-space:pre }
		.shp0 { fill: #000000 } 
	</style>
	<path id="Layer" fill-rule="evenodd" class="shp0" d="M127.61 94.78C127.81 95.15 127.94 95.55 127.98 95.97C128.03 96.39 127.99 96.81 127.87 97.21C127.76 97.61 127.56 97.99 127.3 98.32L125.3 100.8C125.04 101.13 124.71 101.4 124.34 101.61C123.97 101.81 123.57 101.93 123.15 101.98C122.73 102.03 122.31 101.99 121.91 101.87C121.5 101.76 121.13 101.56 120.8 101.3L1.2 8.17C0.87 7.91 0.6 7.58 0.39 7.22C0.19 6.85 0.06 6.45 0.02 6.03C-0.03 5.61 0.01 5.19 0.13 4.79C0.24 4.39 0.44 4.01 0.7 3.68L2.7 1.2C2.96 0.87 3.29 0.6 3.66 0.39C4.03 0.19 4.43 0.07 4.85 0.02C5.27 -0.03 5.69 0.01 6.09 0.13C6.5 0.24 6.87 0.44 7.2 0.7L126.8 93.83C127.13 94.09 127.4 94.42 127.61 94.78ZM52.36 23.73L43.07 16.5C49.66 14.14 56.66 12.75 64 12.75C88.59 12.75 110.06 27.01 120.91 48.09C121.14 48.54 121.32 49.01 121.43 49.5C121.55 49.99 121.61 50.5 121.61 51C121.61 51.5 121.55 52 121.43 52.49C121.32 52.98 121.14 53.46 120.91 53.91C120.21 55.27 119.46 56.6 118.66 57.91C117.87 59.22 117.03 60.5 116.14 61.75C115.26 63 114.33 64.22 113.36 65.41C112.39 66.6 111.38 67.75 110.33 68.87L102.79 62.99C103.65 62.09 104.48 61.17 105.28 60.22C106.08 59.26 106.85 58.29 107.58 57.28C108.32 56.28 109.02 55.26 109.69 54.21C110.35 53.16 110.99 52.09 111.59 51C101.82 33.27 83.73 22.31 64 22.31C60.02 22.31 56.14 22.87 52.36 23.73ZM75.64 78.28L84.93 85.5C78.34 87.85 71.34 89.25 64 89.25C39.42 89.25 17.94 74.99 7.1 53.91C6.87 53.46 6.7 52.99 6.58 52.5C6.46 52.01 6.4 51.5 6.4 51C6.4 50.5 6.46 50 6.58 49.51C6.7 49.02 6.87 48.54 7.1 48.09C7.8 46.73 8.55 45.4 9.35 44.09C10.14 42.78 10.98 41.5 11.87 40.25C12.75 39 13.68 37.78 14.65 36.59C15.62 35.4 16.63 34.25 17.68 33.13L25.22 39.01C24.36 39.91 23.53 40.83 22.73 41.78C21.93 42.74 21.16 43.71 20.42 44.72C19.69 45.72 18.98 46.74 18.32 47.79C17.65 48.84 17.01 49.91 16.41 51C26.18 68.73 44.27 79.69 64 79.69C67.98 79.69 71.86 79.13 75.64 78.28ZM59.36 29.18C59.74 29.1 60.12 29.03 60.51 28.97C60.89 28.91 61.28 28.85 61.67 28.81C62.05 28.77 62.44 28.74 62.83 28.72C63.22 28.7 63.61 28.69 64 28.69C76.1 28.69 85.87 38.23 86.32 50.17L59.36 29.18ZM68.64 72.82C68.26 72.9 67.88 72.97 67.49 73.03C67.11 73.1 66.72 73.15 66.33 73.19C65.95 73.23 65.56 73.26 65.17 73.28C64.78 73.3 64.39 73.31 64 73.31C51.91 73.31 42.13 63.77 41.68 51.83L68.64 72.82Z" />
</svg>