<svg xmlns="http://www.w3.org/2000/svg" viewBox="0 0 128 114" width="128" height="114">
	<style>
		tspan { white-space:pre }
		.shp0 { fill: #000000 } 
	</style>
	<path id="Layer" fill-rule="evenodd" class="shp0" d="M127.23 53.75C127.48 54.25 127.67 54.78 127.8 55.33C127.93 55.88 128 56.44 128 57C128 57.56 127.93 58.12 127.8 58.67C127.67 59.22 127.48 59.75 127.23 60.25C115.18 83.8 91.32 99.75 64 99.75C36.68 99.75 12.82 83.81 0.77 60.25C0.52 59.75 0.33 59.22 0.2 58.67C0.07 58.12 0 57.56 0 57C0 56.44 0.07 55.88 0.2 55.33C0.33 54.78 0.52 54.25 0.77 53.75C12.82 30.2 36.68 14.25 64 14.25C91.32 14.25 115.18 30.19 127.23 53.75ZM116.87 57C106.02 37.18 85.92 24.94 64 24.94C42.08 24.94 21.98 37.18 11.13 57C21.98 76.82 42.08 89.06 64 89.06C85.92 89.06 106.02 76.82 116.87 57ZM64 32.06C74.69 32.03 84.19 38.85 87.6 49C91.01 59.14 87.56 70.34 79.03 76.79C70.5 83.24 58.81 83.5 50.01 77.43C41.2 71.36 37.26 60.33 40.22 50.04C40.68 50.3 41.15 50.53 41.63 50.73C42.12 50.93 42.61 51.1 43.12 51.24C43.62 51.37 44.14 51.47 44.66 51.55C45.18 51.62 45.7 51.65 46.22 51.66C47.86 51.66 49.47 51.33 50.98 50.71C52.49 50.08 53.87 49.16 55.02 48C56.18 46.85 57.09 45.47 57.72 43.96C58.34 42.45 58.67 40.82 58.67 39.19C58.66 38.66 58.63 38.14 58.56 37.62C58.49 37.1 58.38 36.58 58.25 36.08C58.11 35.57 57.94 35.07 57.74 34.59C57.55 34.1 57.32 33.63 57.06 33.18C57.62 33 58.19 32.85 58.76 32.71C59.33 32.58 59.91 32.46 60.49 32.37C61.07 32.28 61.65 32.2 62.24 32.15C62.82 32.1 63.41 32.07 64 32.06Z" />
</svg>