<svg xmlns="http://www.w3.org/2000/svg" viewBox="0 0 576 512" width="512" height="455">
	<style>
		tspan { white-space:pre }
		.shp0 { fill: #000000 } 
	</style>
	<path id="Layer" class="shp0" d="M280.37 148.26L96 300.11L96 464C96 466.1 96.41 468.18 97.22 470.12C98.02 472.06 99.2 473.83 100.69 475.31C102.17 476.8 103.94 477.98 105.88 478.78C107.82 479.59 109.9 480 112 480L224.06 479.71C226.15 479.7 228.23 479.28 230.16 478.47C232.09 477.66 233.84 476.48 235.32 475C236.8 473.51 237.97 471.75 238.77 469.81C239.57 467.88 239.98 465.8 239.98 463.71L239.98 368C239.98 365.9 240.39 363.82 241.2 361.88C242 359.94 243.18 358.17 244.67 356.69C246.15 355.2 247.92 354.02 249.86 353.22C251.8 352.41 253.88 352 255.98 352L319.98 352C322.08 352 324.16 352.41 326.1 353.22C328.04 354.02 329.81 355.2 331.29 356.69C332.78 358.17 333.96 359.94 334.76 361.88C335.57 363.82 335.98 365.9 335.98 368L335.98 463.64C335.97 465.75 336.38 467.83 337.18 469.78C337.98 471.73 339.16 473.5 340.65 474.99C342.13 476.48 343.9 477.66 345.85 478.47C347.79 479.27 349.87 479.69 351.98 479.69L464 480C466.1 480 468.18 479.59 470.12 478.78C472.06 477.98 473.83 476.8 475.31 475.31C476.8 473.83 477.98 472.06 478.78 470.12C479.59 468.18 480 466.1 480 464L480 300L295.67 148.26C294.59 147.39 293.38 146.72 292.08 146.26C290.77 145.8 289.4 145.56 288.02 145.56C286.64 145.56 285.27 145.8 283.96 146.26C282.66 146.72 281.45 147.39 280.37 148.26L280.37 148.26ZM571.6 251.47L488 182.56L488 44.05C488 42.47 487.69 40.91 487.09 39.46C486.48 38 485.6 36.68 484.49 35.56C483.37 34.45 482.05 33.57 480.59 32.96C479.14 32.36 477.58 32.05 476 32.05L420 32.05C418.42 32.05 416.86 32.36 415.41 32.96C413.95 33.57 412.63 34.45 411.51 35.56C410.4 36.68 409.52 38 408.91 39.46C408.31 40.91 408 42.47 408 44.05L408 116.66L318.47 43C314.21 39.49 309.37 36.74 304.17 34.88C298.97 33.02 293.49 32.06 287.97 32.06C282.45 32.06 276.97 33.02 271.77 34.88C266.57 36.74 261.73 39.49 257.47 43L4.34 251.47C3.12 252.47 2.12 253.71 1.38 255.1C0.64 256.49 0.19 258.02 0.04 259.59C-0.11 261.16 0.05 262.74 0.52 264.25C0.98 265.75 1.73 267.16 2.74 268.37L28.24 299.37C29.24 300.59 30.48 301.6 31.87 302.34C33.26 303.08 34.79 303.54 36.36 303.69C37.93 303.84 39.51 303.68 41.02 303.22C42.53 302.76 43.93 302 45.15 301L280.37 107.26C281.45 106.39 282.66 105.72 283.96 105.26C285.27 104.8 286.64 104.56 288.02 104.56C289.4 104.56 290.77 104.8 292.08 105.26C293.38 105.72 294.59 106.39 295.67 107.26L530.9 301C532.11 302.01 533.52 302.76 535.02 303.22C536.53 303.69 538.11 303.85 539.68 303.7C541.25 303.55 542.78 303.1 544.17 302.36C545.56 301.62 546.8 300.62 547.8 299.4L573.3 268.4C574.3 267.18 575.06 265.77 575.51 264.26C575.97 262.74 576.13 261.15 575.97 259.58C575.81 258.01 575.34 256.48 574.59 255.09C573.84 253.7 572.83 252.47 571.6 251.47L571.6 251.47Z" />
</svg>