<svg xmlns="http://www.w3.org/2000/svg" viewBox="0 0 128 128" width="128" height="128">
	<style>
		tspan { white-space:pre }
		.shp0 { fill: #000000 } 
	</style>
	<path id="Layer" fill-rule="evenodd" class="shp0" d="M126.22 119.17L119.15 126.25C116.83 128.6 113.02 128.6 110.67 126.25L85.75 101.33C84.63 100.2 84 98.67 84 97.08L84 93C75.17 99.9 64.08 104 52 104C23.27 104 0 80.72 0 52C0 23.27 23.28 0 52 0C80.72 0 104 23.27 104 52C104 64.08 99.9 75.17 93 84L97.08 84C98.67 84 100.2 84.63 101.33 85.75L126.25 110.67C128.57 113.02 128.57 116.83 126.22 119.17ZM84 52C84 34.3 69.67 20 52 20C34.3 20 20 34.33 20 52C20 69.7 34.33 84 52 84C69.7 84 84 69.67 84 52Z" />
</svg>