<svg xmlns="http://www.w3.org/2000/svg" viewBox="0 0 128 128" width="128" height="128">
	<style>
		tspan { white-space:pre }
		.shp0 { fill: #000000 } 
	</style>
	<path id="Layer" fill-rule="evenodd" class="shp0" d="M124.25 68.25L82.25 110.25C78.5 114 72 111.38 72 106L72 82L38 82C34.67 82 32 79.33 32 76L32 52C32 48.67 34.67 46 38 46L72 46L72 22C72 16.65 78.47 14 82.25 17.75L124.25 59.75C126.58 62.1 126.58 65.9 124.25 68.25ZM45 112L24 112C10.75 112 0 101.25 0 88L0 40C0 26.75 10.75 16 24 16L45 16C46.65 16 48 17.35 48 19L48 29C48 30.65 46.65 32 45 32L24 32C19.57 32 16 35.58 16 40L16 88C16 92.42 19.57 96 24 96L45 96C46.65 96 48 97.35 48 99L48 109C48 110.65 46.65 112 45 112Z" />
</svg>