<svg xmlns="http://www.w3.org/2000/svg" viewBox="0 0 512 512" width="512" height="512">
	<style>
		tspan { white-space:pre }
		.shp0 { fill: #000000 } 
	</style>
	<path id="Base" fill-rule="evenodd" class="shp0" d="M437.02 142.86C418.27 161.61 387.88 161.61 369.14 142.86C350.39 124.12 350.39 93.73 369.14 74.98C387.88 56.24 418.27 56.24 437.02 74.98C455.76 93.73 455.76 124.12 437.02 142.86ZM142.86 437.02C124.12 455.76 93.73 455.76 74.98 437.02C56.24 418.27 56.24 387.88 74.98 369.14C93.73 350.39 124.12 350.39 142.86 369.14C161.61 387.88 161.61 418.27 142.86 437.02ZM437.02 437.02C418.27 455.76 387.88 455.76 369.14 437.02C350.39 418.27 350.39 387.88 369.14 369.14C387.88 350.39 418.27 350.39 437.02 369.14C455.76 387.88 455.76 418.27 437.02 437.02ZM74.98 142.86C56.24 124.12 56.24 93.73 74.98 74.98C93.73 56.24 124.12 56.24 142.86 74.98C161.61 93.73 161.61 124.12 142.86 142.86C124.12 161.61 93.73 161.61 74.98 142.86ZM81.94 289.94C63.19 308.69 32.8 308.69 14.06 289.94C-4.69 271.2 -4.69 240.8 14.06 222.06C32.8 203.31 63.19 203.31 81.94 222.06C100.68 240.8 100.68 271.2 81.94 289.94ZM289.94 497.94C271.2 516.69 240.8 516.69 222.06 497.94C203.31 479.2 203.31 448.81 222.06 430.06C240.8 411.32 271.2 411.32 289.94 430.06C308.69 448.81 308.69 479.2 289.94 497.94ZM289.94 81.94C271.2 100.68 240.8 100.68 222.06 81.94C203.31 63.19 203.31 32.8 222.06 14.06C240.8 -4.69 271.2 -4.69 289.94 14.06C308.69 32.8 308.69 63.19 289.94 81.94Z" />
</svg>