<svg xmlns="http://www.w3.org/2000/svg" viewBox="0 0 512 512" width="512" height="512">
	<style>
		tspan { white-space:pre }
		.shp0 { opacity: 0.902;fill: #000000 } 
		.shp1 { fill: #000000 } 
	</style>
	<path id="1" fill-rule="evenodd" class="shp0" d="M48 208C74.51 208 96 229.49 96 256C96 282.51 74.51 304 48 304C21.49 304 0 282.51 0 256C0 229.49 21.49 208 48 208ZM464 208C490.51 208 512 229.49 512 256C512 282.51 490.51 304 464 304C437.49 304 416 282.51 416 256C416 229.49 437.49 208 464 208ZM256 0C282.51 0 304 21.49 304 48C304 74.51 282.51 96 256 96C229.49 96 208 74.51 208 48C208 21.49 229.49 0 256 0ZM304 464C304 490.51 282.51 512 256 512C229.49 512 208 490.51 208 464C208 437.49 229.49 416 256 416C282.51 416 304 437.49 304 464ZM403.08 355.08C429.59 355.08 451.08 376.57 451.08 403.08C451.08 429.59 429.59 451.08 403.08 451.08C376.57 451.08 355.08 429.59 355.08 403.08C355.08 376.57 376.57 355.08 403.08 355.08ZM403.08 60.92C429.59 60.92 451.08 82.41 451.08 108.92C451.08 135.43 429.59 156.92 403.08 156.92C376.57 156.92 355.08 135.43 355.08 108.92C355.08 82.41 376.57 60.92 403.08 60.92ZM108.92 355.08C135.43 355.08 156.92 376.57 156.92 403.08C156.92 429.59 135.43 451.08 108.92 451.08C82.41 451.08 60.92 429.59 60.92 403.08C60.92 376.57 82.41 355.08 108.92 355.08Z" />
	<path id="1 copy" fill-rule="evenodd" class="shp1" d="M48 208C74.51 208 96 229.49 96 256C96 282.51 74.51 304 48 304C21.49 304 0 282.51 0 256C0 229.49 21.49 208 48 208ZM464 208C490.51 208 512 229.49 512 256C512 282.51 490.51 304 464 304C437.49 304 416 282.51 416 256C416 229.49 437.49 208 464 208ZM101 66C127.51 66 149 87.49 149 114C149 140.51 127.51 162 101 162C74.49 162 53 140.51 53 114C53 87.49 74.49 66 101 66ZM304 464C304 490.51 282.51 512 256 512C229.49 512 208 490.51 208 464C208 437.49 229.49 416 256 416C282.51 416 304 437.49 304 464ZM403.08 355.08C429.59 355.08 451.08 376.57 451.08 403.08C451.08 429.59 429.59 451.08 403.08 451.08C376.57 451.08 355.08 429.59 355.08 403.08C355.08 376.57 376.57 355.08 403.08 355.08ZM403.08 60.92C429.59 60.92 451.08 82.41 451.08 108.92C451.08 135.43 429.59 156.92 403.08 156.92C376.57 156.92 355.08 135.43 355.08 108.92C355.08 82.41 376.57 60.92 403.08 60.92ZM108.92 355.08C135.43 355.08 156.92 376.57 156.92 403.08C156.92 429.59 135.43 451.08 108.92 451.08C82.41 451.08 60.92 429.59 60.92 403.08C60.92 376.57 82.41 355.08 108.92 355.08Z" />
</svg>