<svg xmlns="http://www.w3.org/2000/svg" viewBox="0 0 512 512" width="512" height="512">
	<style>
		tspan { white-space:pre }
		.shp0 { fill: #000000 } 
	</style>
	<path id="Layer" fill-rule="evenodd" class="shp0" d="M304 48C304 74.51 282.51 96 256 96C229.49 96 208 74.51 208 48C208 21.49 229.49 0 256 0C282.51 0 304 21.49 304 48ZM304 464C304 490.51 282.51 512 256 512C229.49 512 208 490.51 208 464C208 437.49 229.49 416 256 416C282.51 416 304 437.49 304 464ZM512 256C512 282.51 490.51 304 464 304C437.49 304 416 282.51 416 256C416 229.49 437.49 208 464 208C490.51 208 512 229.49 512 256ZM48 304C21.49 304 0 282.51 0 256C0 229.49 21.49 208 48 208C74.51 208 96 229.49 96 256C96 282.51 74.51 304 48 304ZM156.92 403.08C156.92 429.59 135.43 451.08 108.92 451.08C82.41 451.08 60.92 429.59 60.92 403.08C60.92 376.57 82.41 355.08 108.92 355.08C135.43 355.08 156.92 376.57 156.92 403.08ZM451.08 403.08C451.08 429.59 429.59 451.08 403.08 451.08C376.57 451.08 355.08 429.59 355.08 403.08C355.08 376.57 376.57 355.08 403.08 355.08C429.59 355.08 451.08 376.57 451.08 403.08ZM156.92 108.92C156.92 135.43 135.43 156.92 108.92 156.92C82.41 156.92 60.92 135.43 60.92 108.92C60.92 82.41 82.41 60.92 108.92 60.92C135.43 60.92 156.92 82.41 156.92 108.92Z" />
</svg>