<svg xmlns="http://www.w3.org/2000/svg" viewBox="0 0 448 512" width="448" height="512">
	<style>
		tspan { white-space:pre }
		.shp0 { fill: #000000 } 
	</style>
	<path id="Layer" class="shp0" d="M319.4 320.6L224 416L128.6 320.6C57.1 323.7 0 382.2 0 454.4L0 464C0 490.5 21.5 512 48 512L400 512C426.5 512 448 490.5 448 464L448 454.4C448 382.2 390.9 323.7 319.4 320.6L319.4 320.6ZM13.6 79.8L20 81.3L20 139.7C13 143.9 8 151.2 8 160C8 168.4 12.6 175.4 19.1 179.7L3.5 242C1.8 248.9 5.6 256 11.1 256L52.9 256C58.4 256 62.2 248.9 60.5 242L44.9 179.7C51.4 175.4 56 168.4 56 160C56 151.2 51 143.9 44 139.7L44 87.1L110 103C101.4 120.2 96 139.4 96 160C96 230.7 153.3 288 224 288C294.7 288 352 230.7 352 160C352 139.4 346.7 120.2 338 103L434.3 79.8C452.5 75.4 452.5 52.7 434.3 48.3L243.9 2.3C230.9 -0.8 217.2 -0.8 204.2 2.3L13.6 48.2C-4.5 52.6 -4.5 75.4 13.6 79.8L13.6 79.8Z" />
</svg>