<svg width="147" height="73" viewBox="0 0 147 73" fill="none" xmlns="http://www.w3.org/2000/svg">
<path d="M18.3327 50.075C19.9827 50.075 21.3327 49.95 22.3827 49.7C23.4827 49.4 24.3577 49.025 25.0077 48.575C25.6577 48.075 26.1077 47.5 26.3577 46.85C26.6077 46.2 26.7327 45.475 26.7327 44.675C26.7327 42.975 25.9327 41.575 24.3327 40.475C22.7327 39.325 19.9827 38.1 16.0827 36.8C14.3827 36.2 12.6827 35.525 10.9827 34.775C9.28272 33.975 7.75772 33 6.40772 31.85C5.05772 30.65 3.95772 29.225 3.10771 27.575C2.25771 25.875 1.83272 23.825 1.83272 21.425C1.83272 19.025 2.28272 16.875 3.18271 14.975C4.08271 13.025 5.35772 11.375 7.00772 10.025C8.65772 8.675 10.6577 7.65 13.0077 6.95C15.3577 6.2 18.0077 5.825 20.9577 5.825C24.4577 5.825 27.4827 6.2 30.0327 6.95C32.5827 7.7 34.6827 8.525 36.3327 9.425L32.9577 18.65C31.5077 17.9 29.8827 17.25 28.0827 16.7C26.3327 16.1 24.2077 15.8 21.7077 15.8C18.9077 15.8 16.8827 16.2 15.6327 17C14.4327 17.75 13.8327 18.925 13.8327 20.525C13.8327 21.475 14.0577 22.275 14.5077 22.925C14.9577 23.575 15.5827 24.175 16.3827 24.725C17.2327 25.225 18.1827 25.7 19.2327 26.15C20.3327 26.55 21.5327 26.975 22.8327 27.425C25.5327 28.425 27.8827 29.425 29.8827 30.425C31.8827 31.375 33.5327 32.5 34.8327 33.8C36.1827 35.1 37.1827 36.625 37.8327 38.375C38.4827 40.125 38.8077 42.25 38.8077 44.75C38.8077 49.6 37.1077 53.375 33.7077 56.075C30.3077 58.725 25.1827 60.05 18.3327 60.05C16.0327 60.05 13.9577 59.9 12.1077 59.6C10.2577 59.35 8.60772 59.025 7.15772 58.625C5.75772 58.225 4.53272 57.8 3.48272 57.35C2.48272 56.9 1.63271 56.475 0.932715 56.075L4.23271 46.775C5.78272 47.625 7.68272 48.4 9.93272 49.1C12.2327 49.75 15.0327 50.075 18.3327 50.075ZM50.3114 72.875H38.8364L64.0364 0.274996H75.3614L50.3114 72.875ZM83.0507 72.875H71.5757L96.7757 0.274996H108.101L83.0507 72.875ZM126.365 50.075C128.015 50.075 129.365 49.95 130.415 49.7C131.515 49.4 132.39 49.025 133.04 48.575C133.69 48.075 134.14 47.5 134.39 46.85C134.64 46.2 134.765 45.475 134.765 44.675C134.765 42.975 133.965 41.575 132.365 40.475C130.765 39.325 128.015 38.1 124.115 36.8C122.415 36.2 120.715 35.525 119.015 34.775C117.315 33.975 115.79 33 114.44 31.85C113.09 30.65 111.99 29.225 111.14 27.575C110.29 25.875 109.865 23.825 109.865 21.425C109.865 19.025 110.315 16.875 111.215 14.975C112.115 13.025 113.39 11.375 115.04 10.025C116.69 8.675 118.69 7.65 121.04 6.95C123.39 6.2 126.04 5.825 128.99 5.825C132.49 5.825 135.515 6.2 138.065 6.95C140.615 7.7 142.715 8.525 144.365 9.425L140.99 18.65C139.54 17.9 137.915 17.25 136.115 16.7C134.365 16.1 132.24 15.8 129.74 15.8C126.94 15.8 124.915 16.2 123.665 17C122.465 17.75 121.865 18.925 121.865 20.525C121.865 21.475 122.09 22.275 122.54 22.925C122.99 23.575 123.615 24.175 124.415 24.725C125.265 25.225 126.215 25.7 127.265 26.15C128.365 26.55 129.565 26.975 130.865 27.425C133.565 28.425 135.915 29.425 137.915 30.425C139.915 31.375 141.565 32.5 142.865 33.8C144.215 35.1 145.215 36.625 145.865 38.375C146.515 40.125 146.84 42.25 146.84 44.75C146.84 49.6 145.14 53.375 141.74 56.075C138.34 58.725 133.215 60.05 126.365 60.05C124.065 60.05 121.99 59.9 120.14 59.6C118.29 59.35 116.64 59.025 115.19 58.625C113.79 58.225 112.565 57.8 111.515 57.35C110.515 56.9 109.665 56.475 108.965 56.075L112.265 46.775C113.815 47.625 115.715 48.4 117.965 49.1C120.265 49.75 123.065 50.075 126.365 50.075Z" fill="white"/>
</svg>
