<svg width="453" height="61" viewBox="0 0 453 61" fill="none" xmlns="http://www.w3.org/2000/svg">
<path d="M18.1355 50.075C19.7855 50.075 21.1355 49.95 22.1855 49.7C23.2855 49.4 24.1605 49.025 24.8104 48.575C25.4605 48.075 25.9105 47.5 26.1605 46.85C26.4105 46.2 26.5355 45.475 26.5355 44.675C26.5355 42.975 25.7354 41.575 24.1354 40.475C22.5354 39.325 19.7854 38.1 15.8854 36.8C14.1855 36.2 12.4854 35.525 10.7854 34.775C9.08545 33.975 7.56045 33 6.21045 31.85C4.86045 30.65 3.76045 29.225 2.91045 27.575C2.06045 25.875 1.63545 23.825 1.63545 21.425C1.63545 19.025 2.08545 16.875 2.98545 14.975C3.88545 13.025 5.16045 11.375 6.81045 10.025C8.46045 8.675 10.4604 7.65 12.8105 6.95C15.1604 6.2 17.8104 5.825 20.7605 5.825C24.2605 5.825 27.2855 6.2 29.8355 6.95C32.3855 7.7 34.4854 8.525 36.1354 9.425L32.7605 18.65C31.3105 17.9 29.6855 17.25 27.8855 16.7C26.1355 16.1 24.0105 15.8 21.5105 15.8C18.7105 15.8 16.6855 16.2 15.4354 17C14.2354 17.75 13.6354 18.925 13.6354 20.525C13.6354 21.475 13.8604 22.275 14.3104 22.925C14.7605 23.575 15.3855 24.175 16.1855 24.725C17.0355 25.225 17.9855 25.7 19.0355 26.15C20.1354 26.55 21.3355 26.975 22.6355 27.425C25.3355 28.425 27.6855 29.425 29.6854 30.425C31.6855 31.375 33.3355 32.5 34.6355 33.8C35.9855 35.1 36.9855 36.625 37.6355 38.375C38.2855 40.125 38.6105 42.25 38.6105 44.75C38.6105 49.6 36.9105 53.375 33.5105 56.075C30.1105 58.725 24.9855 60.05 18.1355 60.05C15.8355 60.05 13.7604 59.9 11.9104 59.6C10.0604 59.35 8.41045 59.025 6.96045 58.625C5.56045 58.225 4.33545 57.8 3.28545 57.35C2.28545 56.9 1.43545 56.475 0.735449 56.075L4.03545 46.775C5.58545 47.625 7.48545 48.4 9.73545 49.1C12.0354 49.75 14.8355 50.075 18.1355 50.075ZM46.4878 9.725L57.6628 7.925V19.55H71.0878V28.85H57.6628V42.725C57.6628 45.075 58.0628 46.95 58.8628 48.35C59.7128 49.75 61.3878 50.45 63.8878 50.45C65.0878 50.45 66.3128 50.35 67.5628 50.15C68.8628 49.9 70.0378 49.575 71.0878 49.175L72.6628 57.875C71.3128 58.425 69.8128 58.9 68.1628 59.3C66.5128 59.7 64.4878 59.9 62.0878 59.9C59.0378 59.9 56.5128 59.5 54.5128 58.7C52.5128 57.85 50.9128 56.7 49.7128 55.25C48.5128 53.75 47.6628 51.95 47.1628 49.85C46.7128 47.75 46.4878 45.425 46.4878 42.875V9.725ZM93.7981 51.2C94.8981 51.2 95.9481 51.175 96.9481 51.125C97.9481 51.075 98.7481 51 99.3481 50.9V42.425C98.8981 42.325 98.2231 42.225 97.3231 42.125C96.4231 42.025 95.5981 41.975 94.8481 41.975C93.7981 41.975 92.7981 42.05 91.8481 42.2C90.9481 42.3 90.1481 42.525 89.4481 42.875C88.7481 43.225 88.1981 43.7 87.7981 44.3C87.3981 44.9 87.1981 45.65 87.1981 46.55C87.1981 48.3 87.7731 49.525 88.9231 50.225C90.1231 50.875 91.7481 51.2 93.7981 51.2ZM92.8981 18.5C96.1981 18.5 98.9481 18.875 101.148 19.625C103.348 20.375 105.098 21.45 106.398 22.85C107.748 24.25 108.698 25.95 109.248 27.95C109.798 29.95 110.073 32.175 110.073 34.625V57.875C108.473 58.225 106.248 58.625 103.398 59.075C100.548 59.575 97.0981 59.825 93.0481 59.825C90.4981 59.825 88.1731 59.6 86.0731 59.15C84.0231 58.7 82.2481 57.975 80.7481 56.975C79.2481 55.925 78.0981 54.575 77.2981 52.925C76.4981 51.275 76.0981 49.25 76.0981 46.85C76.0981 44.55 76.5481 42.6 77.4481 41C78.3981 39.4 79.6481 38.125 81.1981 37.175C82.7481 36.225 84.5231 35.55 86.5231 35.15C88.5231 34.7 90.5981 34.475 92.7481 34.475C94.1981 34.475 95.4731 34.55 96.5731 34.7C97.7231 34.8 98.6481 34.95 99.3481 35.15V34.1C99.3481 32.2 98.7731 30.675 97.6231 29.525C96.4731 28.375 94.4731 27.8 91.6231 27.8C89.7231 27.8 87.8481 27.95 85.9981 28.25C84.1481 28.5 82.5481 28.875 81.1981 29.375L79.7731 20.375C80.4231 20.175 81.2231 19.975 82.1731 19.775C83.1731 19.525 84.2481 19.325 85.3981 19.175C86.5481 18.975 87.7481 18.825 88.9981 18.725C90.2981 18.575 91.5981 18.5 92.8981 18.5ZM118.303 39.275C118.303 36.425 118.753 33.75 119.653 31.25C120.603 28.7 121.953 26.5 123.703 24.65C125.453 22.75 127.578 21.25 130.078 20.15C132.578 19.05 135.428 18.5 138.628 18.5C140.728 18.5 142.653 18.7 144.403 19.1C146.153 19.45 147.853 19.975 149.503 20.675L147.178 29.6C146.128 29.2 144.978 28.85 143.728 28.55C142.478 28.25 141.078 28.1 139.528 28.1C136.228 28.1 133.753 29.125 132.103 31.175C130.503 33.225 129.703 35.925 129.703 39.275C129.703 42.825 130.453 45.575 131.953 47.525C133.503 49.475 136.178 50.45 139.978 50.45C141.328 50.45 142.778 50.325 144.328 50.075C145.878 49.825 147.303 49.425 148.603 48.875L150.178 58.025C148.878 58.575 147.253 59.05 145.303 59.45C143.353 59.85 141.203 60.05 138.853 60.05C135.253 60.05 132.153 59.525 129.553 58.475C126.953 57.375 124.803 55.9 123.103 54.05C121.453 52.2 120.228 50.025 119.428 47.525C118.678 44.975 118.303 42.225 118.303 39.275ZM168.853 33.8C169.953 32.6 171.078 31.35 172.228 30.05C173.428 28.75 174.578 27.475 175.678 26.225C176.778 24.925 177.803 23.7 178.753 22.55C179.753 21.4 180.603 20.4 181.303 19.55H194.578C191.928 22.6 189.328 25.525 186.778 28.325C184.278 31.075 181.528 33.925 178.528 36.875C180.028 38.225 181.578 39.85 183.178 41.75C184.778 43.6 186.328 45.525 187.828 47.525C189.328 49.525 190.703 51.525 191.953 53.525C193.203 55.525 194.253 57.35 195.103 59H182.278C181.478 57.7 180.553 56.275 179.503 54.725C178.503 53.125 177.428 51.55 176.278 50C175.128 48.4 173.903 46.875 172.603 45.425C171.353 43.975 170.103 42.75 168.853 41.75V59H157.678V2.6L168.853 0.799998V33.8ZM234.053 50.075C235.703 50.075 237.053 49.95 238.103 49.7C239.203 49.4 240.078 49.025 240.728 48.575C241.378 48.075 241.828 47.5 242.078 46.85C242.328 46.2 242.453 45.475 242.453 44.675C242.453 42.975 241.653 41.575 240.053 40.475C238.453 39.325 235.703 38.1 231.803 36.8C230.103 36.2 228.403 35.525 226.703 34.775C225.003 33.975 223.478 33 222.128 31.85C220.778 30.65 219.678 29.225 218.828 27.575C217.978 25.875 217.553 23.825 217.553 21.425C217.553 19.025 218.003 16.875 218.903 14.975C219.803 13.025 221.078 11.375 222.728 10.025C224.378 8.675 226.378 7.65 228.728 6.95C231.078 6.2 233.728 5.825 236.678 5.825C240.178 5.825 243.203 6.2 245.753 6.95C248.303 7.7 250.403 8.525 252.053 9.425L248.678 18.65C247.228 17.9 245.603 17.25 243.803 16.7C242.053 16.1 239.928 15.8 237.428 15.8C234.628 15.8 232.603 16.2 231.353 17C230.153 17.75 229.553 18.925 229.553 20.525C229.553 21.475 229.778 22.275 230.228 22.925C230.678 23.575 231.303 24.175 232.103 24.725C232.953 25.225 233.903 25.7 234.953 26.15C236.053 26.55 237.253 26.975 238.553 27.425C241.253 28.425 243.603 29.425 245.603 30.425C247.603 31.375 249.253 32.5 250.553 33.8C251.903 35.1 252.903 36.625 253.553 38.375C254.203 40.125 254.528 42.25 254.528 44.75C254.528 49.6 252.828 53.375 249.428 56.075C246.028 58.725 240.903 60.05 234.053 60.05C231.753 60.05 229.678 59.9 227.828 59.6C225.978 59.35 224.328 59.025 222.878 58.625C221.478 58.225 220.253 57.8 219.203 57.35C218.203 56.9 217.353 56.475 216.653 56.075L219.953 46.775C221.503 47.625 223.403 48.4 225.653 49.1C227.953 49.75 230.753 50.075 234.053 50.075ZM260.906 39.275C260.906 36.425 261.356 33.75 262.256 31.25C263.206 28.7 264.556 26.5 266.306 24.65C268.056 22.75 270.181 21.25 272.681 20.15C275.181 19.05 278.031 18.5 281.231 18.5C283.331 18.5 285.256 18.7 287.006 19.1C288.756 19.45 290.456 19.975 292.106 20.675L289.781 29.6C288.731 29.2 287.581 28.85 286.331 28.55C285.081 28.25 283.681 28.1 282.131 28.1C278.831 28.1 276.356 29.125 274.706 31.175C273.106 33.225 272.306 35.925 272.306 39.275C272.306 42.825 273.056 45.575 274.556 47.525C276.106 49.475 278.781 50.45 282.581 50.45C283.931 50.45 285.381 50.325 286.931 50.075C288.481 49.825 289.906 49.425 291.206 48.875L292.781 58.025C291.481 58.575 289.856 59.05 287.906 59.45C285.956 59.85 283.806 60.05 281.456 60.05C277.856 60.05 274.756 59.525 272.156 58.475C269.556 57.375 267.406 55.9 265.706 54.05C264.056 52.2 262.831 50.025 262.031 47.525C261.281 44.975 260.906 42.225 260.906 39.275ZM300.281 59V2.6L311.456 0.799998V19.7C312.206 19.45 313.156 19.225 314.306 19.025C315.506 18.775 316.656 18.65 317.756 18.65C320.956 18.65 323.606 19.1 325.706 20C327.856 20.85 329.556 22.075 330.806 23.675C332.106 25.275 333.006 27.175 333.506 29.375C334.056 31.575 334.331 34.025 334.331 36.725V59H323.156V38.075C323.156 34.475 322.681 31.925 321.731 30.425C320.831 28.925 319.131 28.175 316.631 28.175C315.631 28.175 314.681 28.275 313.781 28.475C312.931 28.625 312.156 28.8 311.456 29V59H300.281ZM381.346 39.2C381.346 42.3 380.896 45.15 379.996 47.75C379.096 50.3 377.796 52.5 376.096 54.35C374.396 56.15 372.346 57.55 369.946 58.55C367.596 59.55 364.946 60.05 361.996 60.05C359.096 60.05 356.446 59.55 354.046 58.55C351.696 57.55 349.671 56.15 347.971 54.35C346.271 52.5 344.946 50.3 343.996 47.75C343.046 45.15 342.571 42.3 342.571 39.2C342.571 36.1 343.046 33.275 343.996 30.725C344.996 28.175 346.346 26 348.046 24.2C349.796 22.4 351.846 21 354.196 20C356.596 19 359.196 18.5 361.996 18.5C364.846 18.5 367.446 19 369.796 20C372.196 21 374.246 22.4 375.946 24.2C377.646 26 378.971 28.175 379.921 30.725C380.871 33.275 381.346 36.1 381.346 39.2ZM369.946 39.2C369.946 35.75 369.246 33.05 367.846 31.1C366.496 29.1 364.546 28.1 361.996 28.1C359.446 28.1 357.471 29.1 356.071 31.1C354.671 33.05 353.971 35.75 353.971 39.2C353.971 42.65 354.671 45.4 356.071 47.45C357.471 49.45 359.446 50.45 361.996 50.45C364.546 50.45 366.496 49.45 367.846 47.45C369.246 45.4 369.946 42.65 369.946 39.2ZM426.902 39.2C426.902 42.3 426.452 45.15 425.552 47.75C424.652 50.3 423.352 52.5 421.652 54.35C419.952 56.15 417.902 57.55 415.502 58.55C413.152 59.55 410.502 60.05 407.552 60.05C404.652 60.05 402.002 59.55 399.602 58.55C397.252 57.55 395.227 56.15 393.527 54.35C391.827 52.5 390.502 50.3 389.552 47.75C388.602 45.15 388.127 42.3 388.127 39.2C388.127 36.1 388.602 33.275 389.552 30.725C390.552 28.175 391.902 26 393.602 24.2C395.352 22.4 397.402 21 399.752 20C402.152 19 404.752 18.5 407.552 18.5C410.402 18.5 413.002 19 415.352 20C417.752 21 419.802 22.4 421.502 24.2C423.202 26 424.527 28.175 425.477 30.725C426.427 33.275 426.902 36.1 426.902 39.2ZM415.502 39.2C415.502 35.75 414.802 33.05 413.402 31.1C412.052 29.1 410.102 28.1 407.552 28.1C405.002 28.1 403.027 29.1 401.627 31.1C400.227 33.05 399.527 35.75 399.527 39.2C399.527 42.65 400.227 45.4 401.627 47.45C403.027 49.45 405.002 50.45 407.552 50.45C410.102 50.45 412.052 49.45 413.402 47.45C414.802 45.4 415.502 42.65 415.502 39.2ZM451.309 59.75C448.059 59.7 445.409 59.35 443.359 58.7C441.359 58.05 439.759 57.15 438.559 56C437.409 54.8 436.609 53.375 436.159 51.725C435.759 50.025 435.559 48.125 435.559 46.025V2.6L446.734 0.799998V43.775C446.734 44.775 446.809 45.675 446.959 46.475C447.109 47.275 447.384 47.95 447.784 48.5C448.234 49.05 448.859 49.5 449.659 49.85C450.459 50.2 451.534 50.425 452.884 50.525L451.309 59.75Z" fill="white"/>
</svg>
